# xmcd
#
# Track frame offsets:
#	150
#	24420
#	47475
#	67812
#	80710
#	93702
#
# Disc length: 1439 seconds
#
# Revision: 1
# Processed by: cddbd v1.5PL3 Copyright (c) Steve Scherf et al.
# Submitted via: CDex 1.50Beta5
#
DISCID=43059d06
DTITLE=ネプチューン - ネプランド!
DYEAR=2002
DGENRE=Pop
TTITLE0=イッショウケンメイ。
TTITLE1=大きい声
TTITLE2=ブリキのバラ
TTITLE3=SPINNING TOE-HOLD
TTITLE4=どんぐりのチュッー!
TTITLE5=ホリケン☆サイズ
EXTD=
EXTT0=
EXTT1=
EXTT2=
EXTT3=
EXTT4=
EXTT5=
PLAYORDER=
